{
  "accessors": [
    {
      "bufferView": 2,
      "componentType": 5126,
      "count": 2849,
      "max": [
        2.0225977897644043,
        1.8801275491714478,
        1.5774507522583008
      ],
      "min": [
        -2.0225977897644043,
        -2.0162374973297119,
        -1.738853931427002
      ],
      "type": "VEC3"
    },
    {
      "bufferView": 2,
      "byteOffset": 34188,
      "componentType": 5126,
      "count": 2849,
      "max": [
        0.99991524219512939,
        0.99986016750335693,
        0.99806761741638184
      ],
      "min": [
        -0.99991524219512939,
        -0.99976718425750732,
        -0.99968612194061279
      ],
      "type": "VEC3"
    },
    {
      "bufferView": 3,
      "componentType": 5126,
      "count": 2849,
      "max": [
        0.99995249509811401,
        0.99968606233596802,
        0.99986022710800171,
        1
      ],
      "min": [
        -0.95375692844390869,
        -0.99812465906143188,
        -0.99999082088470459,
        1
      ],
      "type": "VEC4"
    },
    {
      "bufferView": 1,
      "componentType": 5126,
      "count": 2849,
      "max": [
        0.99990081787109375,
        0.67632210254669189
      ],
      "min": [
        9.9187200248707086e-05,
        9.9187200248707086e-05
      ],
      "type": "VEC2"
    },
    {
      "bufferView": 0,
      "componentType": 5125,
      "count": 15936,
      "max": [
        2848
      ],
      "min": [
        0
      ],
      "type": "SCALAR"
    }
  ],
  "asset": {
    "extras": {
      "author": "balmsukong (https://sketchfab.com/balmsukong)",
      "license": "CC-BY-4.0 (http://creativecommons.org/licenses/by/4.0/)",
      "source": "https://sketchfab.com/3d-models/kuramon-df442f2b1a6044aa91b8d9fb6c5f896c",
      "title": "Kuramon"
    },
    "generator": "Sketchfab-6.96.0",
    "version": "2.0"
  },
  "bufferViews": [
    {
      "buffer": 0,
      "byteLength": 63744,
      "byteOffset": 0,
      "name": "floatBufferViews",
      "target": 34963
    },
    {
      "buffer": 0,
      "byteLength": 22792,
      "byteOffset": 63744,
      "byteStride": 8,
      "name": "floatBufferViews",
      "target": 34962
    },
    {
      "buffer": 0,
      "byteLength": 68376,
      "byteOffset": 86536,
      "byteStride": 12,
      "name": "floatBufferViews",
      "target": 34962
    },
    {
      "buffer": 0,
      "byteLength": 45584,
      "byteOffset": 154912,
      "byteStride": 16,
      "name": "floatBufferViews",
      "target": 34962
    }
  ],
  "buffers": [
    {
      "byteLength": 200496,
      "uri": "scene.bin"
    }
  ],
  "images": [
    {
      "uri": "textures/Kuramon_mat_baseColor.png"
    }
  ],
  "materials": [
    {
      "doubleSided": false,
      "emissiveFactor": [
        0,
        0,
        0
      ],
      "name": "Kuramon_mat",
      "pbrMetallicRoughness": {
        "baseColorFactor": [
          1,
          1,
          1,
          1
        ],
        "baseColorTexture": {
          "index": 0,
          "texCoord": 0
        },
        "metallicFactor": 0,
        "roughnessFactor": 0.59999999999999998
      }
    }
  ],
  "meshes": [
    {
      "name": "Kuramon_Kuramon_mat_0",
      "primitives": [
        {
          "attributes": {
            "NORMAL": 1,
            "POSITION": 0,
            "TANGENT": 2,
            "TEXCOORD_0": 3
          },
          "indices": 4,
          "material": 0,
          "mode": 4
        }
      ]
    }
  ],
  "nodes": [
    {
      "children": [
        1
      ],
      "name": "RootNode (gltf orientation matrix)",
      "rotation": [
        -0.70710678118654746,
        -0,
        -0,
        0.70710678118654757
      ]
    },
    {
      "children": [
        2
      ],
      "name": "RootNode (model correction matrix)"
    },
    {
      "children": [
        3
      ],
      "matrix": [
        1,
        0,
        0,
        0,
        0,
        0,
        1,
        0,
        0,
        -1,
        0,
        0,
        0,
        0,
        0,
        1
      ],
      "name": "8d129b41c2c94ee8ac3b0e677a67ed72.fbx"
    },
    {
      "children": [
        4
      ],
      "name": "RootNode"
    },
    {
      "children": [
        5
      ],
      "matrix": [
        100,
        0,
        0,
        0,
        0,
        -1.6292067939183141e-05,
        -99.999999999998678,
        0,
        0,
        99.999999999998678,
        -1.6292067939183141e-05,
        0,
        0,
        0,
        0,
        1
      ],
      "name": "Kuramon"
    },
    {
      "mesh": 0,
      "name": "Kuramon_Kuramon_mat_0"
    }
  ],
  "samplers": [
    {
      "magFilter": 9729,
      "minFilter": 9987,
      "wrapS": 10497,
      "wrapT": 10497
    }
  ],
  "scene": 0,
  "scenes": [
    {
      "name": "OSG_Scene",
      "nodes": [
        0
      ]
    }
  ],
  "textures": [
    {
      "sampler": 0,
      "source": 0
    }
  ]
}

